<?xml version="1.0" encoding="UTF-8" standalone="no"?>
<svg
   xmlns:dc="http://purl.org/dc/elements/1.1/"
   xmlns:cc="http://creativecommons.org/ns#"
   xmlns:rdf="http://www.w3.org/1999/02/22-rdf-syntax-ns#"
   xmlns:svg="http://www.w3.org/2000/svg"
   xmlns="http://www.w3.org/2000/svg"
   xmlns:sodipodi="http://sodipodi.sourceforge.net/DTD/sodipodi-0.dtd"
   xmlns:inkscape="http://www.inkscape.org/namespaces/inkscape"
   width="210mm"
   height="297mm"
   viewBox="0 0 210 297"
   version="1.1"
   id="svg8"
   inkscape:version="1.0.1 (3bc2e813f5, 2020-09-07)"
   sodipodi:docname="PIRATE.svg">
  <defs
     id="defs2" />
  <sodipodi:namedview
     id="base"
     pagecolor="#ffffff"
     bordercolor="#666666"
     borderopacity="1.0"
     inkscape:pageopacity="0.0"
     inkscape:pageshadow="2"
     inkscape:zoom="0.35"
     inkscape:cx="357.75211"
     inkscape:cy="314.69804"
     inkscape:document-units="mm"
     inkscape:current-layer="layer1"
     inkscape:document-rotation="0"
     showgrid="false"
     inkscape:window-width="2560"
     inkscape:window-height="1377"
     inkscape:window-x="-8"
     inkscape:window-y="379"
     inkscape:window-maximized="1" />
  <metadata
     id="metadata5">
    <rdf:RDF>
      <cc:Work
         rdf:about="">
        <dc:format>image/svg+xml</dc:format>
        <dc:type
           rdf:resource="http://purl.org/dc/dcmitype/StillImage" />
        <dc:title></dc:title>
      </cc:Work>
    </rdf:RDF>
  </metadata>
  <g
     inkscape:label="Layer 1"
     inkscape:groupmode="layer"
     id="layer1">
    <rect
       style="fill:#000000;stroke-width:0.264583"
       id="rect222"
       width="188.23219"
       height="158.75"
       x="12.473216"
       y="66.523811" />
    <path
       style="font-variation-settings:normal;opacity:1;vector-effect:none;fill:#ff0000;fill-opacity:1;fill-rule:evenodd;stroke-width:0.264583;stroke-linecap:butt;stroke-linejoin:miter;stroke-miterlimit:4;stroke-dasharray:none;stroke-dashoffset:0;stroke-opacity:1;stop-color:#000000;stop-opacity:1"
       id="path231"
       sodipodi:type="arc"
       sodipodi:cx="111.69195"
       sodipodi:cy="148.73363"
       sodipodi:rx="76.918152"
       sodipodi:ry="72.760422"
       sodipodi:start="0"
       sodipodi:end="6.2810386"
       sodipodi:open="true"
       sodipodi:arc-type="arc"
       d="m 188.6101,148.73363 a 76.918152,72.760422 0 0 1 -76.87687,72.76041 76.918152,72.760422 0 0 1 -76.95939,-72.68232 76.918152,72.760422 0 0 1 76.79427,-72.83842 76.918152,72.760422 0 0 1 77.04181,72.60413" />
    <path
       style="font-variation-settings:normal;opacity:1;vector-effect:none;fill:#aa8800;fill-opacity:1;fill-rule:evenodd;stroke-width:0.264583;stroke-linecap:butt;stroke-linejoin:miter;stroke-miterlimit:4;stroke-dasharray:none;stroke-dashoffset:0;stroke-opacity:1;stop-color:#000000;stop-opacity:1"
       id="path23-5-4"
       sodipodi:type="arc"
       sodipodi:cx="111.12501"
       sodipodi:cy="125.86607"
       sodipodi:rx="50.648811"
       sodipodi:ry="38.55357"
       sodipodi:start="0"
       sodipodi:end="6.2810343"
       sodipodi:arc-type="arc"
       d="M 161.77382,125.86607 A 50.648811,38.55357 0 0 1 111.15224,164.41964 50.648811,38.55357 0 0 1 60.476226,125.90754 50.648811,38.55357 0 0 1 111.0433,87.312554 50.648811,38.55357 0 0 1 161.7737,125.78314"
       sodipodi:open="true" />
    <path
       style="font-variation-settings:normal;opacity:1;vector-effect:none;fill:#aa8800;fill-opacity:1;fill-rule:evenodd;stroke-width:0.271455;stroke-linecap:butt;stroke-linejoin:miter;stroke-miterlimit:4;stroke-dasharray:none;stroke-dashoffset:0;stroke-opacity:1;stop-color:#000000;stop-opacity:1"
       id="path25-0-0"
       sodipodi:type="arc"
       sodipodi:cx="111.88096"
       sodipodi:cy="162.52977"
       sodipodi:rx="32.505947"
       sodipodi:ry="40.443455"
       sodipodi:start="0"
       sodipodi:end="6.2810386"
       sodipodi:open="true"
       sodipodi:arc-type="arc"
       d="m 144.38691,162.52977 a 32.505947,40.443455 0 0 1 -32.48851,40.44345 32.505947,40.443455 0 0 1 -32.52337,-40.40004 32.505947,40.443455 0 0 1 32.45359,-40.48681 32.505947,40.443455 0 0 1 32.55821,40.35658" />
    <path
       style="font-variation-settings:normal;opacity:1;vector-effect:none;fill:#2b2200;fill-opacity:1;fill-rule:evenodd;stroke-width:0.264583;stroke-linecap:butt;stroke-linejoin:miter;stroke-miterlimit:4;stroke-dasharray:none;stroke-dashoffset:0;stroke-opacity:1;stop-color:#000000;stop-opacity:1"
       id="path29-9-8"
       sodipodi:type="arc"
       sodipodi:cx="92.604164"
       sodipodi:cy="131.91368"
       sodipodi:rx="7.9375"
       sodipodi:ry="9.8273811"
       sodipodi:start="0"
       sodipodi:end="6.2810386"
       sodipodi:open="true"
       sodipodi:arc-type="arc"
       d="m 100.54166,131.91368 a 7.9375,9.8273811 0 0 1 -7.933236,9.82738 7.9375,9.8273811 0 0 1 -7.941755,-9.81683 7.9375,9.8273811 0 0 1 7.924716,-9.83792 7.9375,9.8273811 0 0 1 7.950265,9.80627" />
    <path
       style="font-variation-settings:normal;opacity:1;vector-effect:none;fill:#2b2200;fill-opacity:1;fill-rule:evenodd;stroke-width:0.386723;stroke-linecap:butt;stroke-linejoin:miter;stroke-miterlimit:4;stroke-dasharray:none;stroke-dashoffset:0;stroke-opacity:1;stop-color:#000000;stop-opacity:1"
       id="path31-0-0"
       sodipodi:type="arc"
       sodipodi:cx="133.2366"
       sodipodi:cy="131.15773"
       sodipodi:rx="8.8824406"
       sodipodi:ry="9.8273811"
       sodipodi:start="0"
       sodipodi:end="6.2810386"
       sodipodi:open="true"
       sodipodi:arc-type="arc"
       d="m 142.11904,131.15773 a 8.8824406,9.8273811 0 0 1 -8.87767,9.82738 8.8824406,9.8273811 0 0 1 -8.8872,-9.81683 8.8824406,9.8273811 0 0 1 8.86813,-9.83792 8.8824406,9.8273811 0 0 1 8.89672,9.80627" />
    <rect
       style="fill:#2b2200;stroke-width:0.264583"
       id="rect35-0-0"
       width="5.2916665"
       height="12.095239"
       x="99.691231"
       y="177.17633" />
    <rect
       style="fill:#2b2200;stroke-width:0.264583"
       id="rect35-3-3-0"
       width="5.2916665"
       height="12.095239"
       x="111.97544"
       y="177.36531" />
    <rect
       style="fill:#2b2200;stroke-width:0.247139"
       id="rect35-6-4-3"
       width="5.0081844"
       height="11.150298"
       x="88.550209"
       y="177.36531" />
    <rect
       style="fill:#2b2200;stroke-width:0.264583"
       id="rect35-3-9-0-2"
       width="5.2916665"
       height="12.095239"
       x="124.35416"
       y="177.08183" />
    <rect
       style="fill:#2b2200;stroke-width:0.219381"
       id="rect90-6-2"
       width="6.0476193"
       height="12.473214"
       x="124.11793"
       y="125.72433" />
    <rect
       style="fill:#2b2200;stroke-width:0.222399"
       id="rect94-1-9"
       width="5.291667"
       height="14.268601"
       x="96.478432"
       y="124.82663" />
    <path
       style="font-variation-settings:normal;opacity:1;vector-effect:none;fill:#ff0000;fill-opacity:1;fill-rule:evenodd;stroke-width:0.264583;stroke-linecap:butt;stroke-linejoin:miter;stroke-miterlimit:4;stroke-dasharray:none;stroke-dashoffset:0;stroke-opacity:1;stop-color:#000000;stop-opacity:1"
       id="path96-2-4"
       sodipodi:type="arc"
       sodipodi:cx="93.643593"
       sodipodi:cy="132.48065"
       sodipodi:rx="0.8504464"
       sodipodi:ry="1.1339285"
       sodipodi:start="0"
       sodipodi:end="6.2810386"
       sodipodi:open="true"
       sodipodi:arc-type="arc"
       d="m 94.494039,132.48065 a 0.8504464,1.1339285 0 0 1 -0.84999,1.13393 0.8504464,1.1339285 0 0 1 -0.850902,-1.13271 0.8504464,1.1339285 0 0 1 0.849077,-1.13515 0.8504464,1.1339285 0 0 1 0.851813,1.1315" />
    <path
       style="font-variation-settings:normal;opacity:1;vector-effect:none;fill:#ff0000;fill-opacity:1;fill-rule:evenodd;stroke-width:0.264583;stroke-linecap:butt;stroke-linejoin:miter;stroke-miterlimit:4;stroke-dasharray:none;stroke-dashoffset:0;stroke-opacity:1;stop-color:#000000;stop-opacity:1"
       id="path98-9-7"
       sodipodi:type="arc"
       sodipodi:cx="134.46503"
       sodipodi:cy="131.34673"
       sodipodi:rx="0.28348213"
       sodipodi:ry="0.75595242"
       sodipodi:start="0"
       sodipodi:end="6.2810386"
       sodipodi:open="true"
       sodipodi:arc-type="arc"
       d="m 134.74851,131.34673 a 0.28348213,0.75595242 0 0 1 -0.28333,0.75595 0.28348213,0.75595242 0 0 1 -0.28364,-0.75514 0.28348213,0.75595242 0 0 1 0.28303,-0.75677 0.28348213,0.75595242 0 0 1 0.28394,0.75433" />
  </g>
</svg>
